<svg id="Settings" xmlns="http://www.w3.org/2000/svg" width="36.1" height="36" viewBox="0 0 36.1 36">
  <rect id="Rectángulo_193" data-name="Rectángulo 193" width="35.9" height="35.9" fill="none"/>
  <path id="Trazado_104" data-name="Trazado 104" d="M277.319,22.5A4.5,4.5,0,1,0,272.7,18,4.574,4.574,0,0,0,277.319,22.5ZM267.851,8.1a13.131,13.131,0,0,1,5.542-2.925L275.241,0h4.618l1.847,5.175A16.261,16.261,0,0,1,287.249,8.1l5.542-1.125,2.309,4.05-3.695,4.05A12.507,12.507,0,0,1,291.636,18c0,.9-.231,2.025-.231,2.925l3.695,4.05-2.309,4.05L287.249,27.9a13.131,13.131,0,0,1-5.542,2.925L279.859,36h-4.618l-1.847-5.175a16.26,16.26,0,0,1-5.542-2.925l-5.542,1.125L260,24.975l3.695-4.05A12.51,12.51,0,0,1,263.464,18c0-.9.231-2.025.231-2.925L260,11.025l2.309-4.05Z" transform="translate(-259)" fill="#fff" fill-rule="evenodd"/>
</svg>
